<svg width="14" height="14" viewBox="0 0 14 14" fill="none" xmlns="http://www.w3.org/2000/svg">
<g clip-path="url(#clip0_561_1960)">
<path d="M13.5 5.93561H11.8125V4.16061C11.8125 3.88405 11.5891 3.66061 11.3125 3.66061H6.39062L4.55781 1.90748C4.53449 1.88565 4.50382 1.87338 4.47188 1.87311H0.5C0.223437 1.87311 0 2.09655 0 2.37311V11.6231C0 11.8997 0.223437 12.1231 0.5 12.1231H11.4062C11.6094 12.1231 11.7937 11.9997 11.8703 11.8106L13.9641 6.62311C13.9875 6.56373 14 6.49967 14 6.43561C14 6.15905 13.7766 5.93561 13.5 5.93561ZM1.125 2.99811H4.07031L5.93906 4.78561H10.6875V5.93561H2.71875C2.51562 5.93561 2.33125 6.05905 2.25469 6.24811L1.125 9.04811V2.99811ZM11.0516 10.9981H1.48438L3.09844 6.99811H12.6672L11.0516 10.9981Z" fill="black" fill-opacity="0.85"/>
</g>
<defs>
<clipPath id="clip0_561_1960">
<rect width="14" height="14" fill="white"/>
</clipPath>
</defs>
</svg>
