<svg width="18" height="18" viewBox="0 0 18 18" fill="none" xmlns="http://www.w3.org/2000/svg">
<g clip-path="url(#clip0_145_57228)">
<path d="M12.5393 0.500005C12.3525 0.500705 12.1736 0.575026 12.0412 0.706842C11.9089 0.838658 11.8339 1.01733 11.8325 1.2041V4.04189C11.8325 5.20646 12.7909 6.16489 13.9555 6.16489H16.7933C16.9736 6.1538 17.1428 6.07437 17.2666 5.94279C17.3903 5.81121 17.4592 5.63739 17.4592 5.45678C17.4592 5.27616 17.3903 5.10234 17.2666 4.97077C17.1428 4.83919 16.9736 4.75976 16.7933 4.74867H13.9555C13.8625 4.74975 13.7703 4.73219 13.6842 4.69702C13.5981 4.66185 13.5199 4.60979 13.4543 4.54391C13.3886 4.47802 13.3369 4.39966 13.302 4.31343C13.2672 4.22721 13.25 4.13488 13.2514 4.04189V1.2041C13.25 1.01641 13.1743 0.836924 13.0408 0.704956C12.9073 0.572988 12.727 0.499292 12.5393 0.500005Z" fill="black" fill-opacity="0.25"/>
<path d="M6.16766 0.5C5.60476 0.502105 5.06544 0.726284 4.6669 1.12381C4.26837 1.52135 4.04283 2.0601 4.03931 2.62299V8.29055C4.03896 8.38417 4.05714 8.47693 4.0928 8.56349C4.12846 8.65005 4.1809 8.72869 4.2471 8.79489C4.3133 8.86109 4.39194 8.91353 4.4785 8.94919C4.56506 8.98485 4.65782 9.00303 4.75144 9.00268C4.8446 9.00233 4.93679 8.98363 5.02273 8.94765C5.10867 8.91167 5.18668 8.85912 5.25231 8.79299C5.31794 8.72687 5.3699 8.64846 5.40523 8.56225C5.44056 8.47604 5.45856 8.38372 5.45821 8.29055V2.62299C5.45675 2.52955 5.47413 2.43677 5.5093 2.35019C5.54447 2.2636 5.59672 2.18499 5.66293 2.11903C5.72914 2.05308 5.80795 2.00113 5.89466 1.96628C5.98138 1.93144 6.07422 1.91441 6.16766 1.91622H12.2529L16.0812 5.74992V15.377C16.0823 15.4698 16.0648 15.5618 16.0298 15.6477C15.9948 15.7336 15.943 15.8117 15.8774 15.8773C15.8118 15.9429 15.7337 15.9947 15.6478 16.0297C15.5619 16.0647 15.4699 16.0822 15.3771 16.0811H6.16766C6.07445 16.0829 5.98183 16.066 5.89529 16.0313C5.80876 15.9966 5.73007 15.9449 5.6639 15.8792C5.59773 15.8136 5.54543 15.7353 5.51009 15.649C5.47476 15.5627 5.45712 15.4702 5.45821 15.377V13.9581C5.45821 13.7704 5.38383 13.5904 5.25136 13.4574C5.1189 13.3244 4.93913 13.2494 4.75144 13.2487C4.65805 13.2483 4.5655 13.2664 4.47912 13.3019C4.39274 13.3374 4.31421 13.3896 4.24805 13.4555C4.18189 13.5214 4.12939 13.5997 4.09357 13.686C4.05775 13.7722 4.03931 13.8647 4.03931 13.9581V15.377C4.03931 16.5416 5.00309 17.5 6.16766 17.5H15.3771C15.9395 17.4979 16.4783 17.2735 16.876 16.8759C17.2736 16.4782 17.498 15.9394 17.5001 15.377V5.45811C17.5005 5.36478 17.4825 5.27228 17.4472 5.18592C17.4118 5.09955 17.3597 5.02101 17.294 4.9548L13.0453 0.708819C12.9793 0.642559 12.9009 0.589998 12.8145 0.554161C12.7281 0.518324 12.6355 0.499918 12.542 0.5H6.16766Z" fill="black" fill-opacity="0.25"/>
<path d="M1.20666 11.8352C1.02638 11.8241 0.857125 11.7446 0.733393 11.6131C0.60966 11.4815 0.540771 11.3077 0.540771 11.1271C0.540771 10.9464 0.60966 10.7726 0.733393 10.641C0.857125 10.5095 1.02638 10.43 1.20666 10.4189H9.70666C9.89482 10.4189 10.0753 10.4937 10.2083 10.6267C10.3414 10.7598 10.4161 10.9402 10.4161 11.1284C10.4161 11.3166 10.3414 11.497 10.2083 11.6301C10.0753 11.7631 9.89482 11.8378 9.70666 11.8378L1.20666 11.8352Z" fill="black" fill-opacity="0.25"/>
<path d="M7.78991 8.49936C7.65831 8.63222 7.58447 8.81165 7.58447 8.99866C7.58447 9.18566 7.65831 9.3651 7.78991 9.49795L9.41495 11.1257L7.78991 12.7507C7.65831 12.8836 7.58447 13.063 7.58447 13.25C7.58447 13.437 7.65831 13.6164 7.78991 13.7493C7.8558 13.8153 7.93405 13.8676 8.02018 13.9033C8.10631 13.939 8.19864 13.9574 8.29188 13.9574C8.38512 13.9574 8.47745 13.939 8.56358 13.9033C8.64971 13.8676 8.72796 13.8153 8.79385 13.7493L10.9168 11.6263C10.9828 11.5604 11.0352 11.4822 11.0709 11.396C11.1066 11.3099 11.1249 11.2176 11.1249 11.1243C11.1249 11.0311 11.1066 10.9388 11.0709 10.8526C11.0352 10.7665 10.9828 10.6882 10.9168 10.6224L8.79385 8.49936C8.72796 8.43339 8.64971 8.38106 8.56358 8.34535C8.47745 8.30964 8.38512 8.29126 8.29188 8.29126C8.19864 8.29126 8.10631 8.30964 8.02018 8.34535C7.93405 8.38106 7.8558 8.43339 7.78991 8.49936Z" fill="black" fill-opacity="0.25"/>
</g>
<defs>
<clipPath id="clip0_145_57228">
<rect width="17" height="17" fill="white" transform="translate(0.5 0.5)"/>
</clipPath>
</defs>
</svg>
