<svg width="14" height="15" viewBox="0 0 14 15" fill="none" xmlns="http://www.w3.org/2000/svg">
<path d="M12.7163 6.64805H11.502V2.64805C11.502 1.38555 10.4788 0.362335 9.21631 0.362335H4.78774C3.52524 0.362335 2.50202 1.38555 2.50202 2.64805V6.64805H1.28774C0.971666 6.64805 0.716309 6.90341 0.716309 7.21948V14.0766C0.716309 14.3927 0.971666 14.6481 1.28774 14.6481H12.7163C13.0324 14.6481 13.2877 14.3927 13.2877 14.0766V7.21948C13.2877 6.90341 13.0324 6.64805 12.7163 6.64805ZM3.78774 2.64805C3.78774 2.09626 4.23595 1.64805 4.78774 1.64805H9.21631C9.7681 1.64805 10.2163 2.09626 10.2163 2.64805V6.64805H3.78774V2.64805ZM12.002 13.3623H2.00202V7.93376H12.002V13.3623ZM6.50202 10.8802V11.8266C6.50202 11.9052 6.56631 11.9695 6.64488 11.9695H7.35917C7.43774 11.9695 7.50202 11.9052 7.50202 11.8266V10.8802C7.64943 10.7744 7.75945 10.6245 7.81626 10.4521C7.87306 10.2798 7.87372 10.0939 7.81813 9.92115C7.76254 9.74841 7.65358 9.59777 7.50692 9.4909C7.36027 9.38403 7.18349 9.32645 7.00202 9.32645C6.82056 9.32645 6.64378 9.38403 6.49713 9.4909C6.35047 9.59777 6.24151 9.74841 6.18592 9.92115C6.13033 10.0939 6.13099 10.2798 6.18779 10.4521C6.2446 10.6245 6.35462 10.7744 6.50202 10.8802Z" fill="#1890FF"/>
</svg>
