<svg width="14" height="15" viewBox="0 0 14 15" fill="none" xmlns="http://www.w3.org/2000/svg">
<path d="M13.1889 11.9937C12.8521 11.1958 12.3632 10.4711 11.7497 9.85981C11.1379 9.24679 10.4133 8.75803 9.61573 8.42053C9.60858 8.41695 9.60144 8.41517 9.5943 8.4116C10.7068 7.60803 11.43 6.2991 11.43 4.82231C11.43 2.37588 9.44787 0.393738 7.00144 0.393738C4.55501 0.393738 2.57287 2.37588 2.57287 4.82231C2.57287 6.2991 3.29608 7.60803 4.40858 8.41338C4.40144 8.41695 4.3943 8.41874 4.38715 8.42231C3.58715 8.75981 2.8693 9.24374 2.25323 9.8616C1.64021 10.4733 1.15145 11.198 0.81394 11.9955C0.482372 12.7763 0.30355 13.6135 0.287154 14.4616C0.286677 14.4807 0.29002 14.4996 0.296986 14.5174C0.303951 14.5351 0.314399 14.5513 0.327712 14.5649C0.341025 14.5786 0.356935 14.5894 0.374504 14.5968C0.392074 14.6042 0.410947 14.608 0.430011 14.608H1.50144C1.58001 14.608 1.64251 14.5455 1.6443 14.4687C1.68001 13.0902 2.23358 11.7991 3.21215 10.8205C4.22465 9.80803 5.5693 9.25088 7.00144 9.25088C8.43358 9.25088 9.77822 9.80803 10.7907 10.8205C11.7693 11.7991 12.3229 13.0902 12.3586 14.4687C12.3604 14.5473 12.4229 14.608 12.5014 14.608H13.5729C13.5919 14.608 13.6108 14.6042 13.6284 14.5968C13.6459 14.5894 13.6619 14.5786 13.6752 14.5649C13.6885 14.5513 13.6989 14.5351 13.7059 14.5174C13.7129 14.4996 13.7162 14.4807 13.7157 14.4616C13.6979 13.608 13.5211 12.7777 13.1889 11.9937ZM7.00144 7.89374C6.1818 7.89374 5.41037 7.5741 4.83001 6.99374C4.24965 6.41338 3.93001 5.64195 3.93001 4.82231C3.93001 4.00267 4.24965 3.23124 4.83001 2.65088C5.41037 2.07052 6.1818 1.75088 7.00144 1.75088C7.82108 1.75088 8.59251 2.07052 9.17287 2.65088C9.75322 3.23124 10.0729 4.00267 10.0729 4.82231C10.0729 5.64195 9.75322 6.41338 9.17287 6.99374C8.59251 7.5741 7.82108 7.89374 7.00144 7.89374Z" fill="#1890FF"/>
</svg>
