<svg width="23" height="24" viewBox="0 0 23 24" fill="none" xmlns="http://www.w3.org/2000/svg">
<path d="M20.2893 19.7384C20.2944 19.7304 20.3021 19.7223 20.3073 19.7143C21.9886 17.6277 23 14.9384 23 12C23 9.06161 21.9886 6.37232 20.3098 4.28571C20.3047 4.27768 20.297 4.27232 20.2919 4.26429C20.2636 4.22946 20.2379 4.19732 20.2097 4.16518C20.1994 4.15179 20.1892 4.14107 20.1789 4.12768L20.0737 4.00179L20.0711 3.99911C20.0326 3.95357 19.9915 3.90804 19.953 3.8625L19.9504 3.85982C19.8683 3.76875 19.7862 3.67768 19.7015 3.58929L19.6989 3.58661L19.5757 3.45804L19.568 3.45C19.5295 3.40982 19.491 3.37232 19.4525 3.33482C19.4396 3.32143 19.4268 3.30804 19.4114 3.29464C19.3857 3.26786 19.36 3.24375 19.3344 3.21964C19.3267 3.21161 19.3164 3.20357 19.3087 3.19286C17.2603 1.21071 14.5162 0 11.5 0C8.48382 0 5.73973 1.21071 3.68873 3.19286C3.68103 3.20089 3.67076 3.20893 3.66306 3.21964C3.63739 3.24375 3.61172 3.27054 3.58605 3.29732C3.57321 3.31071 3.56038 3.32411 3.54498 3.3375C3.50647 3.375 3.46797 3.41518 3.42946 3.45268L3.42176 3.46071L3.29855 3.58929L3.29598 3.59196C3.21127 3.68036 3.12913 3.77143 3.04699 3.8625L3.04442 3.86518C3.00335 3.91071 2.96484 3.95625 2.92634 4.00179L2.92377 4.00446C2.88783 4.04464 2.8519 4.0875 2.81853 4.13036C2.80826 4.14375 2.79799 4.15446 2.78772 4.16786C2.75949 4.2 2.73382 4.23482 2.70558 4.26696C2.70045 4.275 2.69275 4.28036 2.68761 4.28839C1.01138 6.37232 0 9.06161 0 12C0 14.9384 1.01138 17.6277 2.69018 19.7143C2.69531 19.7223 2.70301 19.7304 2.70815 19.7384L2.78772 19.8375C2.79799 19.8509 2.80826 19.8616 2.81853 19.875L2.92377 20.0009C2.92377 20.0036 2.92634 20.0036 2.92634 20.0063C2.96484 20.0518 3.00335 20.0973 3.04442 20.1402L3.04699 20.1429C3.12913 20.2339 3.21127 20.325 3.29342 20.4134L3.29598 20.4161C3.33705 20.4589 3.37556 20.5018 3.41663 20.542L3.42433 20.55C3.50904 20.6384 3.59632 20.7241 3.68359 20.8071C5.73973 22.7893 8.48382 24 11.5 24C14.5162 24 17.2603 22.7893 19.3113 20.8071C19.3987 20.7235 19.4843 20.6378 19.568 20.55L19.5757 20.542C19.6167 20.4991 19.6578 20.4589 19.6963 20.4161L19.6989 20.4134C19.7836 20.325 19.8657 20.2339 19.9453 20.1429L19.9479 20.1402C19.9864 20.0946 20.0275 20.0518 20.066 20.0063C20.066 20.0036 20.0685 20.0036 20.0685 20.0009C20.1045 19.9607 20.1404 19.9179 20.1738 19.875C20.184 19.8616 20.1943 19.8509 20.2046 19.8375C20.2336 19.8052 20.2618 19.7722 20.2893 19.7384ZM20.3945 15.9187C20.0403 16.792 19.5731 17.6009 19.0032 18.3348C18.3614 17.756 17.6597 17.2538 16.9112 16.8375C17.2089 15.5812 17.3938 14.2018 17.4425 12.75H21.1261C21.0491 13.8455 20.8027 14.9089 20.3945 15.9187ZM21.1261 11.25H17.4425C17.3938 9.79821 17.2089 8.41875 16.9112 7.1625C17.6633 6.74464 18.3641 6.24107 19.0032 5.66518C20.242 7.25618 20.983 9.20555 21.1261 11.25ZM15.2555 2.71875C16.2746 3.16875 17.2012 3.79018 18.0175 4.57232C17.5433 4.99364 17.0329 5.36844 16.4927 5.69196C16.0897 4.48661 15.5738 3.43929 14.9731 2.60089C15.0681 2.63839 15.1631 2.67857 15.2555 2.71875ZM12.9298 21.4848C12.6936 21.6777 12.4575 21.825 12.2188 21.9241V16.9554C13.2373 17.0295 14.2389 17.2662 15.1887 17.6571C14.9757 18.3161 14.7292 18.9241 14.4443 19.4732C13.9977 20.3411 13.474 21.0348 12.9298 21.4848ZM14.4443 4.52679C14.7267 5.07857 14.9757 5.68661 15.1887 6.34286C14.2389 6.73381 13.2373 6.97049 12.2188 7.04464V2.07857C12.4549 2.17768 12.6936 2.32232 12.9298 2.51786C13.474 2.96518 13.9977 3.65893 14.4443 4.52679ZM12.2188 15.4527V12.75H16.005C15.964 13.9339 15.8228 15.083 15.5866 16.1732L15.5789 16.2054C14.5016 15.7791 13.3688 15.5253 12.2188 15.4527ZM12.2188 11.25V8.54732C13.3944 8.47232 14.5239 8.2125 15.5789 7.79464L15.5866 7.82679C15.8228 8.91696 15.964 10.0634 16.005 11.25H12.2188ZM10.7812 12.75V15.4527C9.60558 15.5277 8.47612 15.7875 7.42109 16.2054L7.41339 16.1732C7.17723 15.083 7.03605 13.9366 6.99498 12.75H10.7812ZM6.99498 11.25C7.03605 10.0661 7.17723 8.91696 7.41339 7.82679L7.42109 7.79464C8.47612 8.2125 9.60301 8.47232 10.7812 8.54732V11.25H6.99498ZM10.7812 16.9554V21.9214C10.5451 21.8223 10.3064 21.6777 10.0702 21.4821C9.526 21.0348 8.99978 20.3384 8.55313 19.4705C8.27076 18.9188 8.02176 18.3107 7.80871 17.6545C8.76362 17.2634 9.75703 17.0304 10.7812 16.9554ZM10.7812 7.04464C9.7627 6.97049 8.76107 6.73381 7.81127 6.34286C8.02433 5.68393 8.27076 5.07589 8.55569 4.52679C9.00234 3.65893 9.526 2.9625 10.0728 2.51518C10.3089 2.32232 10.5451 2.175 10.7838 2.07589V7.04464H10.7812ZM7.74453 2.71875C7.83951 2.67857 7.93192 2.63839 8.0269 2.60089C7.42623 3.43929 6.91027 4.48661 6.50725 5.69196C5.96819 5.37054 5.45737 4.99554 4.98248 4.57232C5.79877 3.79018 6.72545 3.16875 7.74453 2.71875ZM2.60547 8.08125C2.95971 7.20804 3.4269 6.39911 3.99676 5.66518C4.63594 6.24107 5.33672 6.74464 6.08884 7.1625C5.79107 8.41875 5.60625 9.79821 5.55748 11.25H1.87388C1.95089 10.1545 2.19732 9.09107 2.60547 8.08125ZM1.87388 12.75H5.55748C5.60625 14.2018 5.79107 15.5812 6.08884 16.8375C5.34026 17.2538 4.63856 17.756 3.99676 18.3348C2.75802 16.7438 2.01704 14.7945 1.87388 12.75ZM7.74453 21.2812C6.72545 20.8313 5.79877 20.2098 4.98248 19.4277C5.45737 19.0045 5.96819 18.6321 6.50725 18.308C6.91027 19.5134 7.42623 20.5607 8.0269 21.3991C7.93192 21.3616 7.83694 21.3214 7.74453 21.2812ZM15.2555 21.2812C15.1605 21.3214 15.0681 21.3616 14.9731 21.3991C15.5738 20.5607 16.0897 19.5134 16.4927 18.308C17.0318 18.6295 17.5426 19.0045 18.0175 19.4277C17.2058 20.2066 16.2714 20.8336 15.2555 21.2812Z" fill="black" fill-opacity="0.85"/>
</svg>
